#N canvas 502 0 709 525 10;
#N canvas 552 462 571 358 send_osc 1;
#X obj -38 120 sendOSC;
#X floatatom -38 147 5 0 0 0 - - -;
#X msg 43 76 disconnect;
#X floatatom 16 149 5 0 0 0 - - -;
#X msg 43 54 connect localhost 57120;
#X obj -33 -28 inlet msg;
#X obj 31 -28 inlet hands;
#X text 55 141;
#X connect 0 0 1 0;
#X connect 0 1 3 0;
#X connect 2 0 0 0;
#X connect 4 0 0 0;
#X connect 5 0 0 0;
#X connect 6 0 0 0;
#X restore -408 203 pd send_osc;
#X obj 97 6 OSC;
#X obj -195 115 bng 15 250 50 0 empty empty empty 17 7 0 10 -262144
-1 -1;
#X obj -195 49 tgl 30 0 empty empty empty 17 7 0 10 -262144 -1 -1 0
1;
#X msg -349 60 disconnect;
#X msg -410 -24 connect localhost 57120;
#X obj -195 25 loadbang;
#X msg -147 62 10;
#X msg -400 -2 connect rpj3.local 8900;
#X obj -14 161 unpack f f f;
#X floatatom -14 188 4 0 0 0 - - -;
#X floatatom 25 188 4 0 0 0 - - -;
#X floatatom 65 188 4 0 0 0 - - -;
#X obj 31 103 print rejected;
#X obj -74 27 dumpOSC 9998;
#X obj -14 132 OSCroute /r1 /s1;
#X msg -391 19 connect localhost 9998;
#X obj -74 50 OSCroute /nodered1;
#X obj -74 76 print;
#X msg -363 131 send /nodered/r1 \$1;
#X msg -363 109 1000;
#X obj -195 163 random 1000;
#X msg -195 184 send /nodered1 \$1;
#X obj -195 89 metro 500;
#X connect 2 0 21 0;
#X connect 3 0 23 0;
#X connect 4 0 0 0;
#X connect 5 0 0 0;
#X connect 6 0 3 0;
#X connect 7 0 23 1;
#X connect 8 0 0 0;
#X connect 9 0 10 0;
#X connect 9 1 11 0;
#X connect 9 2 12 0;
#X connect 14 0 17 0;
#X connect 15 0 9 0;
#X connect 16 0 0 0;
#X connect 17 0 18 0;
#X connect 17 1 15 0;
#X connect 17 1 13 0;
#X connect 19 0 0 0;
#X connect 20 0 19 0;
#X connect 21 0 22 0;
#X connect 22 0 0 0;
#X connect 23 0 2 0;
